<svg class="svg-icon" width="50" height="50" style="width: 1em; height: 1em;vertical-align: middle;fill: currentColor;overflow: hidden;" viewBox="0 0 1024 1024" version="1.1" xmlns="http://www.w3.org/2000/svg"><path d="M332.8 256a25.6 25.6 0 0 0-25.6 25.6v460.8a25.6 25.6 0 0 0 25.6 25.6h358.4a25.6 25.6 0 0 0 25.6-25.6v-460.8a25.6 25.6 0 0 0-25.6-25.6h-358.4z m0-51.2h358.4A76.8 76.8 0 0 1 768 281.6v460.8a76.8 76.8 0 0 1-76.8 76.8h-358.4A76.8 76.8 0 0 1 256 742.4v-460.8A76.8 76.8 0 0 1 332.8 204.8z m51.2 204.8a25.6 25.6 0 0 1 0-51.2h256a25.6 25.6 0 1 1 0 51.2h-256z m0 102.4a25.6 25.6 0 0 1 0-51.2h153.6a25.6 25.6 0 1 1 0 51.2h-153.6z m0 102.4a25.6 25.6 0 1 1 0-51.2h102.4a25.6 25.6 0 1 1 0 51.2h-102.4z"  /></svg>